# xmcd CD database file
#
# Track frame offsets:
#	150
#	27045
#	51647
#	70948
#	91090
#	109876
#	134130
#	163470
#	187557
#	211269
#	231087
#	253450
#	277076
#	295074
#
# Disc length: 4391 seconds
#
# Revision: 6
# Processed by: cddbd v1.5.1PL2 Copyright (c) Steve Scherf et al.
# Submitted via: CDex 1.51
#
DISCID=d911250e
DTITLE=БИ-2 - drum[a]
DYEAR=2002
DGENRE=New Age
TTITLE0=Последний герой (remix by СтереоТип)
TTITLE1=Мой рок-н-ролл (light mix by I.M.)
TTITLE2=Ёлочный сок (эо mix by That Black)
TTITLE3=Моя любовь (remix by YаD)
TTITLE4=С тобой (nova bossa mix by Da*Pop)
TTITLE5=Недотрога (remix by Indigo-go)
TTITLE6=Цветы (Неонавт version)
TTITLE7=Сокол (roland mix by Tetris)
TTITLE8=Шер (remix by Y. Moorush)
TTITLE9=Ещё не вечер (remix by YaD)
TTITLE10=Зажигать (composite mix by I.M.)
TTITLE11=Последний герой (tripper mix by DJ Соколов)
TTITLE12=Сокол (remix by Y. Moorush)
TTITLE13=Мой рок-н-ролл (grosso remix by Неонавт)
EXTD=YEAR: 2002
EXTT0=
EXTT1=
EXTT2=
EXTT3=
EXTT4=
EXTT5=
EXTT6=
EXTT7=
EXTT8=
EXTT9=
EXTT10=
EXTT11=
EXTT12=
EXTT13=
PLAYORDER=
